<?xml version="1.0" encoding="UTF-8"?>
<!-- Generated by Pixelmator Pro 2.4.5 -->
<svg width="47" height="47" viewBox="0 0 47 47" xmlns="http://www.w3.org/2000/svg" xmlns:xlink="http://www.w3.org/1999/xlink">
    <path id="Path" fill="none" stroke="#f5ebe9" stroke-width="2" stroke-linecap="round" stroke-linejoin="round" d="M 46 46 L 1 46 L 1 1 L 46 1 Z"/>
    <path id="path1" fill="#ff715b" stroke="none" d="M 26.106199 30.7563 C 26.256201 30.9063 26.4625 31 26.6875 31 C 26.9125 31 27.1 30.9063 27.2687 30.7563 L 27.756201 30.268801 C 28.075001 29.950001 28.075001 29.424999 27.756201 29.1063 L 22.15 23.5 L 27.756201 17.893801 C 27.9062 17.743799 28 17.5375 28 17.3125 C 28 17.0875 27.9062 16.881201 27.756201 16.731199 L 27.2687 16.243799 C 27.1187 16.0938 26.9125 16 26.6875 16 C 26.4625 16 26.256201 16.0938 26.106199 16.243799 L 19.4312 22.918699 C 19.2812 23.068701 19.1875 23.275 19.1875 23.5 C 19.1875 23.725 19.2812 23.931299 19.4312 24.0812 L 26.106199 30.7563 Z"/>
</svg>
