<svg width="690" height="50" viewBox="0 0 690 50" fill="none" xmlns="http://www.w3.org/2000/svg">
<rect width="50" height="50" rx="10" fill="#EDFAE3"/>
<path d="M96.48 33L92.088 18.312C91.944 17.8 91.736 17.464 91.464 17.304C91.208 17.128 90.848 17.04 90.384 17.04H90.072V15.864H97.56V17.04H97.008C96.048 17.04 95.568 17.424 95.568 18.192C95.568 18.32 95.592 18.496 95.64 18.72C95.688 18.928 95.736 19.128 95.784 19.32L97.632 25.68C97.824 26.336 98.008 27.04 98.184 27.792C98.376 28.528 98.512 29.168 98.592 29.712C98.72 29.152 98.848 28.592 98.976 28.032C99.12 27.472 99.28 26.896 99.456 26.304L102.504 16.032H104.232L107.424 25.656C107.68 26.424 107.904 27.184 108.096 27.936C108.304 28.672 108.456 29.272 108.552 29.736C108.664 29.16 108.8 28.504 108.96 27.768C109.12 27.016 109.304 26.256 109.512 25.488L111.096 19.464C111.144 19.272 111.192 19.048 111.24 18.792C111.304 18.52 111.336 18.32 111.336 18.192C111.336 17.424 110.816 17.04 109.776 17.04H109.224V15.864H115.344V17.04H114.888C114.424 17.04 114.056 17.16 113.784 17.4C113.512 17.624 113.272 18.128 113.064 18.912L109.224 33H106.704L102.72 20.904L99.168 33H96.48ZM121.129 33.24C119.273 33.24 117.817 32.688 116.761 31.584C115.705 30.464 115.177 28.776 115.177 26.52C115.177 24.28 115.681 22.608 116.689 21.504C117.713 20.4 119.217 19.848 121.201 19.848C123.041 19.848 124.489 20.4 125.545 21.504C126.617 22.608 127.153 24.28 127.153 26.52C127.153 28.776 126.641 30.464 125.617 31.584C124.609 32.688 123.113 33.24 121.129 33.24ZM121.177 31.824C122.201 31.824 122.921 31.376 123.337 30.48C123.753 29.584 123.961 28.264 123.961 26.52C123.961 24.776 123.753 23.472 123.337 22.608C122.921 21.728 122.193 21.288 121.153 21.288C120.113 21.288 119.385 21.728 118.969 22.608C118.569 23.472 118.369 24.776 118.369 26.52C118.369 28.264 118.577 29.584 118.993 30.48C119.425 31.376 120.153 31.824 121.177 31.824ZM128.944 33V31.824H129.016C129.56 31.824 130.008 31.728 130.36 31.536C130.728 31.328 130.912 30.848 130.912 30.096V22.944C130.912 22.24 130.736 21.792 130.384 21.6C130.048 21.408 129.616 21.312 129.088 21.312H129.016V20.136H133.432L133.888 22.2H134.008C134.328 21.48 134.712 20.912 135.16 20.496C135.624 20.08 136.36 19.872 137.368 19.872C139.16 19.872 140.056 20.496 140.056 21.744C140.056 22.4 139.824 22.912 139.36 23.28C138.896 23.648 138.216 23.832 137.32 23.832C137.32 23.176 137.232 22.688 137.056 22.368C136.88 22.048 136.568 21.888 136.12 21.888C135.688 21.888 135.336 22.048 135.064 22.368C134.792 22.672 134.576 23.064 134.416 23.544C134.272 24.008 134.168 24.48 134.104 24.96C134.056 25.44 134.032 25.856 134.032 26.208V30.216C134.032 30.92 134.2 31.368 134.536 31.56C134.888 31.736 135.312 31.824 135.808 31.824H136.552V33H128.944ZM140.774 33V31.824H141.086C141.374 31.824 141.654 31.792 141.926 31.728C142.198 31.648 142.422 31.496 142.598 31.272C142.79 31.048 142.886 30.696 142.886 30.216V17.448C142.886 17 142.79 16.672 142.598 16.464C142.422 16.256 142.19 16.12 141.902 16.056C141.63 15.976 141.358 15.936 141.086 15.936H140.774V14.76H146.006V30.216C146.006 30.696 146.094 31.048 146.27 31.272C146.462 31.496 146.694 31.648 146.966 31.728C147.238 31.792 147.518 31.824 147.806 31.824H148.118V33H140.774ZM154.549 33.24C152.981 33.24 151.773 32.712 150.925 31.656C150.077 30.584 149.653 28.896 149.653 26.592C149.653 24.272 150.069 22.576 150.901 21.504C151.749 20.416 152.957 19.872 154.525 19.872C155.437 19.872 156.181 20.064 156.757 20.448C157.333 20.816 157.797 21.288 158.149 21.864H158.293C158.245 21.432 158.205 20.952 158.173 20.424C158.141 19.88 158.125 19.416 158.125 19.032V17.472C158.125 16.8 157.933 16.376 157.549 16.2C157.165 16.024 156.709 15.936 156.181 15.936H155.989V14.76H161.245V30.168C161.245 30.648 161.333 31.008 161.509 31.248C161.701 31.488 161.949 31.648 162.253 31.728C162.557 31.792 162.885 31.824 163.237 31.824H163.357V33H158.941L158.413 31.008H158.245C157.877 31.696 157.405 32.24 156.829 32.64C156.253 33.04 155.493 33.24 154.549 33.24ZM155.365 31.536C156.421 31.536 157.141 31.128 157.525 30.312C157.925 29.496 158.125 28.248 158.125 26.568C158.125 24.952 157.925 23.712 157.525 22.848C157.141 21.984 156.413 21.552 155.341 21.552C154.445 21.552 153.805 21.984 153.421 22.848C153.037 23.712 152.845 24.96 152.845 26.592C152.845 28.24 153.037 29.48 153.421 30.312C153.805 31.128 154.453 31.536 155.365 31.536ZM179.233 33.24C177.473 33.24 176.001 32.872 174.817 32.136C173.649 31.4 172.769 30.376 172.177 29.064C171.601 27.736 171.313 26.184 171.313 24.408C171.313 22.68 171.617 21.16 172.225 19.848C172.833 18.52 173.737 17.488 174.937 16.752C176.137 16 177.617 15.624 179.377 15.624C181.137 15.624 182.449 15.888 183.313 16.416C184.177 16.944 184.609 17.592 184.609 18.36C184.609 18.936 184.369 19.408 183.889 19.776C183.425 20.128 182.777 20.304 181.945 20.304C181.945 19.792 181.857 19.288 181.681 18.792C181.521 18.296 181.241 17.888 180.841 17.568C180.457 17.232 179.929 17.064 179.257 17.064C177.609 17.064 176.457 17.704 175.801 18.984C175.145 20.248 174.817 22.056 174.817 24.408C174.817 26.664 175.193 28.4 175.945 29.616C176.697 30.832 177.953 31.44 179.713 31.44C180.881 31.44 181.801 31.216 182.473 30.768C183.161 30.304 183.713 29.8 184.129 29.256C184.257 29.352 184.361 29.488 184.441 29.664C184.521 29.84 184.561 30.04 184.561 30.264C184.561 30.68 184.385 31.12 184.033 31.584C183.681 32.048 183.113 32.44 182.329 32.76C181.561 33.08 180.529 33.24 179.233 33.24ZM185.891 33V31.824H186.203C186.491 31.824 186.771 31.792 187.043 31.728C187.315 31.648 187.539 31.496 187.715 31.272C187.907 31.048 188.003 30.696 188.003 30.216V17.448C188.003 17 187.907 16.672 187.715 16.464C187.539 16.256 187.307 16.12 187.019 16.056C186.747 15.976 186.475 15.936 186.203 15.936H185.891V14.76H191.123V30.216C191.123 30.696 191.211 31.048 191.387 31.272C191.579 31.496 191.811 31.648 192.083 31.728C192.355 31.792 192.635 31.824 192.923 31.824H193.235V33H185.891ZM198.466 33.24C197.41 33.24 196.522 32.92 195.802 32.28C195.082 31.64 194.722 30.664 194.722 29.352C194.722 28.072 195.17 27.12 196.066 26.496C196.962 25.872 198.314 25.528 200.122 25.464L202.114 25.392V24.024C202.114 23.48 202.074 23 201.994 22.584C201.914 22.152 201.746 21.816 201.49 21.576C201.25 21.336 200.866 21.216 200.338 21.216C199.602 21.216 199.114 21.464 198.874 21.96C198.634 22.44 198.514 23.056 198.514 23.808C197.586 23.808 196.89 23.696 196.426 23.472C195.962 23.232 195.73 22.824 195.73 22.248C195.73 21.672 195.938 21.208 196.354 20.856C196.786 20.504 197.354 20.248 198.058 20.088C198.778 19.928 199.57 19.848 200.434 19.848C202.034 19.848 203.234 20.16 204.034 20.784C204.834 21.392 205.234 22.448 205.234 23.952V30.12C205.234 30.776 205.338 31.224 205.546 31.464C205.77 31.704 206.154 31.824 206.698 31.824H206.77V33H202.786L202.306 31.2H202.114C201.778 31.632 201.45 32 201.13 32.304C200.81 32.608 200.442 32.84 200.026 33C199.61 33.16 199.09 33.24 198.466 33.24ZM199.498 31.584C200.298 31.584 200.93 31.304 201.394 30.744C201.874 30.168 202.114 29.392 202.114 28.416V26.568L200.866 26.64C199.746 26.688 198.97 26.952 198.538 27.432C198.122 27.896 197.914 28.576 197.914 29.472C197.914 30.88 198.442 31.584 199.498 31.584ZM212.985 33.24C211.449 33.24 210.313 32.992 209.577 32.496C208.857 32 208.497 31.344 208.497 30.528C208.497 30.032 208.609 29.664 208.833 29.424C209.057 29.168 209.321 29 209.625 28.92C209.929 28.824 210.201 28.776 210.441 28.776C210.441 29.704 210.657 30.464 211.089 31.056C211.537 31.632 212.185 31.92 213.033 31.92C213.881 31.92 214.505 31.744 214.905 31.392C215.305 31.04 215.505 30.6 215.505 30.072C215.505 29.72 215.417 29.416 215.241 29.16C215.065 28.888 214.761 28.632 214.329 28.392C213.913 28.152 213.321 27.888 212.553 27.6C211.289 27.12 210.329 26.592 209.673 26.016C209.033 25.424 208.713 24.592 208.713 23.52C208.713 22.304 209.161 21.392 210.057 20.784C210.953 20.176 212.137 19.872 213.609 19.872C214.985 19.872 215.985 20.104 216.609 20.568C217.233 21.016 217.545 21.528 217.545 22.104C217.545 22.6 217.369 22.984 217.017 23.256C216.681 23.528 216.137 23.664 215.385 23.664C215.385 22.88 215.209 22.264 214.857 21.816C214.505 21.368 213.977 21.144 213.273 21.144C212.649 21.144 212.145 21.296 211.761 21.6C211.393 21.888 211.209 22.288 211.209 22.8C211.209 23.168 211.305 23.48 211.497 23.736C211.689 23.992 212.009 24.24 212.457 24.48C212.921 24.72 213.561 24.984 214.377 25.272C215.513 25.704 216.401 26.216 217.041 26.808C217.681 27.384 218.001 28.176 218.001 29.184C218.001 30.496 217.553 31.504 216.657 32.208C215.761 32.896 214.537 33.24 212.985 33.24ZM224.352 33.24C222.816 33.24 221.68 32.992 220.944 32.496C220.224 32 219.864 31.344 219.864 30.528C219.864 30.032 219.976 29.664 220.2 29.424C220.424 29.168 220.688 29 220.992 28.92C221.296 28.824 221.568 28.776 221.808 28.776C221.808 29.704 222.024 30.464 222.456 31.056C222.904 31.632 223.552 31.92 224.4 31.92C225.248 31.92 225.872 31.744 226.272 31.392C226.672 31.04 226.872 30.6 226.872 30.072C226.872 29.72 226.784 29.416 226.608 29.16C226.432 28.888 226.128 28.632 225.696 28.392C225.28 28.152 224.688 27.888 223.92 27.6C222.656 27.12 221.696 26.592 221.04 26.016C220.4 25.424 220.08 24.592 220.08 23.52C220.08 22.304 220.528 21.392 221.424 20.784C222.32 20.176 223.504 19.872 224.976 19.872C226.352 19.872 227.352 20.104 227.976 20.568C228.6 21.016 228.912 21.528 228.912 22.104C228.912 22.6 228.736 22.984 228.384 23.256C228.048 23.528 227.504 23.664 226.752 23.664C226.752 22.88 226.576 22.264 226.224 21.816C225.872 21.368 225.344 21.144 224.64 21.144C224.016 21.144 223.512 21.296 223.128 21.6C222.76 21.888 222.576 22.288 222.576 22.8C222.576 23.168 222.672 23.48 222.864 23.736C223.056 23.992 223.376 24.24 223.824 24.48C224.288 24.72 224.928 24.984 225.744 25.272C226.88 25.704 227.768 26.216 228.408 26.808C229.048 27.384 229.368 28.176 229.368 29.184C229.368 30.496 228.92 31.504 228.024 32.208C227.128 32.896 225.904 33.24 224.352 33.24ZM242.794 33.24C241.514 33.24 240.482 33.08 239.698 32.76C238.914 32.44 238.346 32.024 237.994 31.512C237.658 31 237.49 30.456 237.49 29.88C237.49 29.176 237.714 28.664 238.162 28.344C238.626 28.024 239.178 27.864 239.818 27.864C239.85 29.096 240.146 30.08 240.706 30.816C241.266 31.536 242.066 31.896 243.106 31.896C244.082 31.896 244.85 31.648 245.41 31.152C245.97 30.64 246.25 29.968 246.25 29.136C246.25 28.288 245.938 27.616 245.314 27.12C244.69 26.624 243.698 26.096 242.338 25.536C240.722 24.88 239.57 24.144 238.882 23.328C238.21 22.512 237.874 21.488 237.874 20.256C237.874 19.312 238.114 18.496 238.594 17.808C239.09 17.104 239.762 16.568 240.61 16.2C241.474 15.816 242.45 15.624 243.538 15.624C245.17 15.624 246.386 15.896 247.186 16.44C248.002 16.984 248.41 17.624 248.41 18.36C248.41 18.904 248.186 19.352 247.738 19.704C247.306 20.04 246.674 20.208 245.842 20.208C245.842 19.744 245.754 19.264 245.578 18.768C245.418 18.256 245.146 17.832 244.762 17.496C244.394 17.16 243.89 16.992 243.25 16.992C242.498 16.992 241.874 17.208 241.378 17.64C240.898 18.056 240.658 18.64 240.658 19.392C240.658 19.92 240.77 20.384 240.994 20.784C241.218 21.184 241.61 21.568 242.17 21.936C242.73 22.304 243.522 22.696 244.546 23.112C246.098 23.752 247.242 24.456 247.978 25.224C248.714 25.976 249.082 26.952 249.082 28.152C249.082 29.176 248.818 30.072 248.29 30.84C247.778 31.592 247.05 32.184 246.106 32.616C245.178 33.032 244.074 33.24 242.794 33.24ZM257.465 33.24C255.529 33.24 254.049 32.664 253.025 31.512C252.001 30.36 251.489 28.736 251.489 26.64C251.489 24.4 251.985 22.712 252.977 21.576C253.969 20.424 255.377 19.848 257.201 19.848C258.865 19.848 260.177 20.336 261.137 21.312C262.097 22.288 262.577 23.72 262.577 25.608V26.784H254.657C254.705 28.448 255.009 29.664 255.569 30.432C256.145 31.184 256.961 31.56 258.017 31.56C258.849 31.56 259.553 31.376 260.129 31.008C260.705 30.64 261.137 30.208 261.425 29.712C261.809 29.904 262.001 30.248 262.001 30.744C262.001 31.16 261.833 31.56 261.497 31.944C261.177 32.312 260.681 32.624 260.009 32.88C259.353 33.12 258.505 33.24 257.465 33.24ZM254.705 25.344H259.385C259.385 24.112 259.217 23.136 258.881 22.416C258.561 21.68 258.009 21.312 257.225 21.312C256.473 21.312 255.881 21.656 255.449 22.344C255.017 23.032 254.769 24.032 254.705 25.344ZM264.248 33V31.824H264.32C264.864 31.824 265.312 31.728 265.664 31.536C266.032 31.328 266.216 30.848 266.216 30.096V22.944C266.216 22.24 266.04 21.792 265.688 21.6C265.352 21.408 264.92 21.312 264.392 21.312H264.32V20.136H268.736L269.192 22.2H269.312C269.632 21.48 270.016 20.912 270.464 20.496C270.928 20.08 271.664 19.872 272.672 19.872C274.464 19.872 275.36 20.496 275.36 21.744C275.36 22.4 275.128 22.912 274.664 23.28C274.2 23.648 273.52 23.832 272.624 23.832C272.624 23.176 272.536 22.688 272.36 22.368C272.184 22.048 271.872 21.888 271.424 21.888C270.992 21.888 270.64 22.048 270.368 22.368C270.096 22.672 269.88 23.064 269.72 23.544C269.576 24.008 269.472 24.48 269.408 24.96C269.36 25.44 269.336 25.856 269.336 26.208V30.216C269.336 30.92 269.504 31.368 269.84 31.56C270.192 31.736 270.616 31.824 271.112 31.824H271.856V33H264.248ZM281.527 33L277.615 22.512C277.439 22.032 277.215 21.712 276.943 21.552C276.671 21.392 276.279 21.312 275.767 21.312V20.136H282.655V21.312H281.911C281.223 21.312 280.879 21.616 280.879 22.224C280.879 22.4 280.895 22.576 280.927 22.752C280.975 22.912 281.023 23.064 281.071 23.208L282.703 27.744C282.895 28.288 283.079 28.864 283.255 29.472C283.431 30.064 283.567 30.568 283.663 30.984C283.743 30.616 283.871 30.16 284.047 29.616C284.223 29.072 284.383 28.592 284.527 28.176L286.207 23.4C286.287 23.192 286.343 22.984 286.375 22.776C286.423 22.568 286.447 22.368 286.447 22.176C286.447 21.6 286.055 21.312 285.271 21.312H284.767V20.136H289.999V21.312H289.591C289.207 21.312 288.903 21.424 288.679 21.648C288.455 21.856 288.199 22.344 287.911 23.112L284.335 33H281.527ZM294.024 17.88C293.528 17.88 293.104 17.752 292.752 17.496C292.416 17.24 292.248 16.824 292.248 16.248C292.248 15.656 292.416 15.24 292.752 15C293.104 14.744 293.528 14.616 294.024 14.616C294.52 14.616 294.944 14.744 295.296 15C295.648 15.24 295.824 15.656 295.824 16.248C295.824 16.824 295.648 17.24 295.296 17.496C294.944 17.752 294.52 17.88 294.024 17.88ZM290.472 33V31.824H290.784C291.056 31.824 291.328 31.792 291.6 31.728C291.888 31.648 292.12 31.496 292.296 31.272C292.488 31.048 292.584 30.704 292.584 30.24V22.824C292.584 22.376 292.488 22.048 292.296 21.84C292.12 21.632 291.888 21.496 291.6 21.432C291.328 21.352 291.056 21.312 290.784 21.312H290.568V20.136H295.704V30.216C295.704 30.696 295.792 31.048 295.968 31.272C296.16 31.496 296.392 31.648 296.664 31.728C296.936 31.792 297.216 31.824 297.504 31.824H297.792V33H290.472ZM305.132 33.24C304.012 33.24 303.012 33.024 302.132 32.592C301.268 32.16 300.588 31.464 300.092 30.504C299.612 29.528 299.372 28.232 299.372 26.616C299.372 24.888 299.62 23.536 300.116 22.56C300.628 21.568 301.308 20.872 302.156 20.472C303.02 20.056 303.988 19.848 305.06 19.848C306.388 19.848 307.476 20.08 308.324 20.544C309.172 20.992 309.596 21.592 309.596 22.344C309.596 22.872 309.396 23.312 308.996 23.664C308.612 24.016 307.9 24.192 306.86 24.192C306.86 23.392 306.74 22.696 306.5 22.104C306.26 21.512 305.796 21.216 305.108 21.216C304.58 21.216 304.124 21.376 303.74 21.696C303.356 22.016 303.06 22.568 302.852 23.352C302.644 24.12 302.54 25.2 302.54 26.592C302.54 28.24 302.788 29.48 303.284 30.312C303.78 31.128 304.588 31.536 305.708 31.536C306.508 31.536 307.196 31.36 307.772 31.008C308.364 30.656 308.796 30.216 309.068 29.688C309.404 29.912 309.572 30.256 309.572 30.72C309.572 31.12 309.412 31.512 309.092 31.896C308.772 32.28 308.284 32.6 307.628 32.856C306.988 33.112 306.156 33.24 305.132 33.24ZM317.676 33.24C315.74 33.24 314.26 32.664 313.236 31.512C312.212 30.36 311.7 28.736 311.7 26.64C311.7 24.4 312.196 22.712 313.188 21.576C314.18 20.424 315.588 19.848 317.412 19.848C319.076 19.848 320.388 20.336 321.348 21.312C322.308 22.288 322.788 23.72 322.788 25.608V26.784H314.868C314.916 28.448 315.22 29.664 315.78 30.432C316.356 31.184 317.172 31.56 318.228 31.56C319.06 31.56 319.764 31.376 320.34 31.008C320.916 30.64 321.348 30.208 321.636 29.712C322.02 29.904 322.212 30.248 322.212 30.744C322.212 31.16 322.044 31.56 321.708 31.944C321.388 32.312 320.892 32.624 320.22 32.88C319.564 33.12 318.716 33.24 317.676 33.24ZM314.916 25.344H319.596C319.596 24.112 319.428 23.136 319.092 22.416C318.772 21.68 318.22 21.312 317.436 21.312C316.684 21.312 316.092 21.656 315.66 22.344C315.228 23.032 314.98 24.032 314.916 25.344ZM329.211 33.24C327.675 33.24 326.539 32.992 325.803 32.496C325.083 32 324.723 31.344 324.723 30.528C324.723 30.032 324.835 29.664 325.059 29.424C325.283 29.168 325.547 29 325.851 28.92C326.155 28.824 326.427 28.776 326.667 28.776C326.667 29.704 326.883 30.464 327.315 31.056C327.763 31.632 328.411 31.92 329.259 31.92C330.107 31.92 330.731 31.744 331.131 31.392C331.531 31.04 331.731 30.6 331.731 30.072C331.731 29.72 331.643 29.416 331.467 29.16C331.291 28.888 330.987 28.632 330.555 28.392C330.139 28.152 329.547 27.888 328.779 27.6C327.515 27.12 326.555 26.592 325.899 26.016C325.259 25.424 324.939 24.592 324.939 23.52C324.939 22.304 325.387 21.392 326.283 20.784C327.179 20.176 328.363 19.872 329.835 19.872C331.211 19.872 332.211 20.104 332.835 20.568C333.459 21.016 333.771 21.528 333.771 22.104C333.771 22.6 333.595 22.984 333.243 23.256C332.907 23.528 332.363 23.664 331.611 23.664C331.611 22.88 331.435 22.264 331.083 21.816C330.731 21.368 330.203 21.144 329.499 21.144C328.875 21.144 328.371 21.296 327.987 21.6C327.619 21.888 327.435 22.288 327.435 22.8C327.435 23.168 327.531 23.48 327.723 23.736C327.915 23.992 328.235 24.24 328.683 24.48C329.147 24.72 329.787 24.984 330.603 25.272C331.739 25.704 332.627 26.216 333.267 26.808C333.907 27.384 334.227 28.176 334.227 29.184C334.227 30.496 333.779 31.504 332.883 32.208C331.987 32.896 330.763 33.24 329.211 33.24ZM342.229 33V31.824H342.973C343.389 31.824 343.741 31.736 344.029 31.56C344.333 31.368 344.485 30.92 344.485 30.216V18.552C344.485 17.896 344.333 17.48 344.029 17.304C343.725 17.128 343.373 17.04 342.973 17.04H342.229V15.864H349.357C351.485 15.864 353.069 16.32 354.109 17.232C355.149 18.128 355.669 19.36 355.669 20.928C355.669 21.872 355.445 22.768 354.997 23.616C354.565 24.448 353.845 25.12 352.837 25.632C351.845 26.144 350.509 26.4 348.829 26.4H347.749V30.336C347.749 30.992 347.901 31.408 348.205 31.584C348.509 31.744 348.869 31.824 349.285 31.824H350.485V33H342.229ZM347.749 25.104H348.589C349.869 25.104 350.781 24.792 351.325 24.168C351.885 23.544 352.165 22.496 352.165 21.024C352.165 19.712 351.925 18.744 351.445 18.12C350.965 17.496 350.133 17.184 348.949 17.184H347.749V25.104ZM357.061 33V31.824H357.133C357.677 31.824 358.125 31.728 358.477 31.536C358.845 31.328 359.029 30.848 359.029 30.096V22.944C359.029 22.24 358.853 21.792 358.501 21.6C358.165 21.408 357.733 21.312 357.205 21.312H357.133V20.136H361.549L362.005 22.2H362.125C362.445 21.48 362.829 20.912 363.277 20.496C363.741 20.08 364.477 19.872 365.485 19.872C367.277 19.872 368.173 20.496 368.173 21.744C368.173 22.4 367.941 22.912 367.477 23.28C367.013 23.648 366.333 23.832 365.437 23.832C365.437 23.176 365.349 22.688 365.173 22.368C364.997 22.048 364.685 21.888 364.237 21.888C363.805 21.888 363.453 22.048 363.181 22.368C362.909 22.672 362.693 23.064 362.533 23.544C362.389 24.008 362.285 24.48 362.221 24.96C362.173 25.44 362.149 25.856 362.149 26.208V30.216C362.149 30.92 362.317 31.368 362.653 31.56C363.005 31.736 363.429 31.824 363.925 31.824H364.669V33H357.061ZM375.683 33.24C373.827 33.24 372.371 32.688 371.315 31.584C370.259 30.464 369.731 28.776 369.731 26.52C369.731 24.28 370.235 22.608 371.243 21.504C372.267 20.4 373.771 19.848 375.755 19.848C377.595 19.848 379.043 20.4 380.099 21.504C381.171 22.608 381.707 24.28 381.707 26.52C381.707 28.776 381.195 30.464 380.171 31.584C379.163 32.688 377.667 33.24 375.683 33.24ZM375.731 31.824C376.755 31.824 377.475 31.376 377.891 30.48C378.307 29.584 378.515 28.264 378.515 26.52C378.515 24.776 378.307 23.472 377.891 22.608C377.475 21.728 376.747 21.288 375.707 21.288C374.667 21.288 373.939 21.728 373.523 22.608C373.123 23.472 372.923 24.776 372.923 26.52C372.923 28.264 373.131 29.584 373.547 30.48C373.979 31.376 374.707 31.824 375.731 31.824ZM388.706 33L384.794 22.512C384.618 22.032 384.394 21.712 384.122 21.552C383.85 21.392 383.458 21.312 382.946 21.312V20.136H389.834V21.312H389.09C388.402 21.312 388.058 21.616 388.058 22.224C388.058 22.4 388.074 22.576 388.106 22.752C388.154 22.912 388.202 23.064 388.25 23.208L389.882 27.744C390.074 28.288 390.258 28.864 390.434 29.472C390.61 30.064 390.746 30.568 390.842 30.984C390.922 30.616 391.05 30.16 391.226 29.616C391.402 29.072 391.562 28.592 391.706 28.176L393.386 23.4C393.466 23.192 393.522 22.984 393.554 22.776C393.602 22.568 393.626 22.368 393.626 22.176C393.626 21.6 393.234 21.312 392.45 21.312H391.946V20.136H397.178V21.312H396.77C396.386 21.312 396.082 21.424 395.858 21.648C395.634 21.856 395.378 22.344 395.09 23.112L391.514 33H388.706ZM401.203 17.88C400.707 17.88 400.283 17.752 399.931 17.496C399.595 17.24 399.427 16.824 399.427 16.248C399.427 15.656 399.595 15.24 399.931 15C400.283 14.744 400.707 14.616 401.203 14.616C401.699 14.616 402.123 14.744 402.475 15C402.827 15.24 403.003 15.656 403.003 16.248C403.003 16.824 402.827 17.24 402.475 17.496C402.123 17.752 401.699 17.88 401.203 17.88ZM397.651 33V31.824H397.963C398.235 31.824 398.507 31.792 398.779 31.728C399.067 31.648 399.299 31.496 399.475 31.272C399.667 31.048 399.763 30.704 399.763 30.24V22.824C399.763 22.376 399.667 22.048 399.475 21.84C399.299 21.632 399.067 21.496 398.779 21.432C398.507 21.352 398.235 21.312 397.963 21.312H397.747V20.136H402.883V30.216C402.883 30.696 402.971 31.048 403.147 31.272C403.339 31.496 403.571 31.648 403.843 31.728C404.115 31.792 404.395 31.824 404.683 31.824H404.971V33H397.651ZM411.424 33.24C409.856 33.24 408.648 32.712 407.8 31.656C406.952 30.584 406.528 28.896 406.528 26.592C406.528 24.272 406.944 22.576 407.776 21.504C408.624 20.416 409.832 19.872 411.4 19.872C412.312 19.872 413.056 20.064 413.632 20.448C414.208 20.816 414.672 21.288 415.024 21.864H415.168C415.12 21.432 415.08 20.952 415.048 20.424C415.016 19.88 415 19.416 415 19.032V17.472C415 16.8 414.808 16.376 414.424 16.2C414.04 16.024 413.584 15.936 413.056 15.936H412.864V14.76H418.12V30.168C418.12 30.648 418.208 31.008 418.384 31.248C418.576 31.488 418.824 31.648 419.128 31.728C419.432 31.792 419.76 31.824 420.112 31.824H420.232V33H415.816L415.288 31.008H415.12C414.752 31.696 414.28 32.24 413.704 32.64C413.128 33.04 412.368 33.24 411.424 33.24ZM412.24 31.536C413.296 31.536 414.016 31.128 414.4 30.312C414.8 29.496 415 28.248 415 26.568C415 24.952 414.8 23.712 414.4 22.848C414.016 21.984 413.288 21.552 412.216 21.552C411.32 21.552 410.68 21.984 410.296 22.848C409.912 23.712 409.72 24.96 409.72 26.592C409.72 28.24 409.912 29.48 410.296 30.312C410.68 31.128 411.328 31.536 412.24 31.536ZM427.785 33.24C425.849 33.24 424.369 32.664 423.345 31.512C422.321 30.36 421.809 28.736 421.809 26.64C421.809 24.4 422.305 22.712 423.297 21.576C424.289 20.424 425.697 19.848 427.521 19.848C429.185 19.848 430.497 20.336 431.457 21.312C432.417 22.288 432.897 23.72 432.897 25.608V26.784H424.977C425.025 28.448 425.329 29.664 425.889 30.432C426.465 31.184 427.281 31.56 428.337 31.56C429.169 31.56 429.873 31.376 430.449 31.008C431.025 30.64 431.457 30.208 431.745 29.712C432.129 29.904 432.321 30.248 432.321 30.744C432.321 31.16 432.153 31.56 431.817 31.944C431.497 32.312 431.001 32.624 430.329 32.88C429.673 33.12 428.825 33.24 427.785 33.24ZM425.025 25.344H429.705C429.705 24.112 429.537 23.136 429.201 22.416C428.881 21.68 428.329 21.312 427.545 21.312C426.793 21.312 426.201 21.656 425.769 22.344C425.337 23.032 425.089 24.032 425.025 25.344ZM440.971 33V31.824H441.715C442.115 31.824 442.467 31.744 442.771 31.584C443.075 31.408 443.227 30.992 443.227 30.336V18.552C443.227 17.896 443.075 17.48 442.771 17.304C442.467 17.128 442.115 17.04 441.715 17.04H440.971V15.864H453.811L453.931 20.208H452.419L452.299 19.08C452.235 18.488 452.043 18.032 451.723 17.712C451.403 17.392 450.947 17.232 450.355 17.232H446.491V23.928H452.203V25.248H446.491V30.216C446.491 30.92 446.635 31.368 446.923 31.56C447.227 31.736 447.587 31.824 448.003 31.824H449.227V33H440.971ZM461.019 33.24C459.163 33.24 457.707 32.688 456.651 31.584C455.595 30.464 455.067 28.776 455.067 26.52C455.067 24.28 455.571 22.608 456.579 21.504C457.603 20.4 459.107 19.848 461.091 19.848C462.931 19.848 464.379 20.4 465.435 21.504C466.507 22.608 467.043 24.28 467.043 26.52C467.043 28.776 466.531 30.464 465.507 31.584C464.499 32.688 463.003 33.24 461.019 33.24ZM461.067 31.824C462.091 31.824 462.811 31.376 463.227 30.48C463.643 29.584 463.851 28.264 463.851 26.52C463.851 24.776 463.643 23.472 463.227 22.608C462.811 21.728 462.083 21.288 461.043 21.288C460.003 21.288 459.275 21.728 458.859 22.608C458.459 23.472 458.259 24.776 458.259 26.52C458.259 28.264 458.467 29.584 458.883 30.48C459.315 31.376 460.043 31.824 461.067 31.824ZM468.834 33V31.824H468.906C469.45 31.824 469.898 31.728 470.25 31.536C470.618 31.328 470.802 30.848 470.802 30.096V22.944C470.802 22.24 470.626 21.792 470.274 21.6C469.938 21.408 469.506 21.312 468.978 21.312H468.906V20.136H473.322L473.778 22.2H473.898C474.218 21.48 474.602 20.912 475.05 20.496C475.514 20.08 476.25 19.872 477.258 19.872C479.05 19.872 479.946 20.496 479.946 21.744C479.946 22.4 479.714 22.912 479.25 23.28C478.786 23.648 478.106 23.832 477.21 23.832C477.21 23.176 477.122 22.688 476.946 22.368C476.77 22.048 476.458 21.888 476.01 21.888C475.578 21.888 475.226 22.048 474.954 22.368C474.682 22.672 474.466 23.064 474.306 23.544C474.162 24.008 474.058 24.48 473.994 24.96C473.946 25.44 473.922 25.856 473.922 26.208V30.216C473.922 30.92 474.09 31.368 474.426 31.56C474.778 31.736 475.202 31.824 475.698 31.824H476.442V33H468.834ZM490.427 33V31.824H491.339C491.787 31.824 492.163 31.752 492.467 31.608C492.787 31.448 492.947 31.016 492.947 30.312V26.52L488.507 18.312C488.251 17.848 488.011 17.52 487.787 17.328C487.579 17.136 487.251 17.04 486.803 17.04H486.491V15.864H493.979V17.04H493.403C492.939 17.04 492.603 17.136 492.395 17.328C492.203 17.504 492.107 17.728 492.107 18C492.107 18.208 492.147 18.432 492.227 18.672C492.307 18.896 492.395 19.104 492.491 19.296L494.267 22.704C494.523 23.2 494.739 23.664 494.915 24.096C495.091 24.528 495.243 24.928 495.371 25.296C495.531 24.912 495.731 24.472 495.971 23.976C496.211 23.48 496.467 22.968 496.739 22.44L498.179 19.608C498.339 19.288 498.443 19.008 498.491 18.768C498.555 18.528 498.587 18.328 498.587 18.168C498.587 17.416 498.075 17.04 497.051 17.04H496.451V15.864H502.571V17.04H502.187C501.803 17.04 501.483 17.168 501.227 17.424C500.987 17.68 500.675 18.176 500.291 18.912L496.235 26.544V30.24C496.235 30.96 496.387 31.408 496.691 31.584C497.011 31.744 497.387 31.824 497.819 31.824H498.755V33H490.427ZM508.011 33.24C506.155 33.24 504.699 32.688 503.643 31.584C502.587 30.464 502.059 28.776 502.059 26.52C502.059 24.28 502.563 22.608 503.571 21.504C504.595 20.4 506.099 19.848 508.083 19.848C509.923 19.848 511.371 20.4 512.427 21.504C513.499 22.608 514.035 24.28 514.035 26.52C514.035 28.776 513.523 30.464 512.499 31.584C511.491 32.688 509.995 33.24 508.011 33.24ZM508.059 31.824C509.083 31.824 509.803 31.376 510.219 30.48C510.635 29.584 510.843 28.264 510.843 26.52C510.843 24.776 510.635 23.472 510.219 22.608C509.803 21.728 509.075 21.288 508.035 21.288C506.995 21.288 506.267 21.728 505.851 22.608C505.451 23.472 505.251 24.776 505.251 26.52C505.251 28.264 505.459 29.584 505.875 30.48C506.307 31.376 507.035 31.824 508.059 31.824ZM521.563 33.24C520.299 33.24 519.331 32.864 518.659 32.112C517.987 31.344 517.651 30.144 517.651 28.512V22.992C517.651 22.288 517.491 21.832 517.171 21.624C516.867 21.416 516.435 21.312 515.875 21.312H515.827V20.136H520.771V28.032C520.771 29.072 520.915 29.896 521.203 30.504C521.491 31.096 522.043 31.392 522.859 31.392C523.739 31.392 524.371 31.056 524.755 30.384C525.155 29.696 525.355 28.784 525.355 27.648V22.92C525.355 22.44 525.267 22.088 525.091 21.864C524.931 21.64 524.707 21.496 524.419 21.432C524.147 21.352 523.851 21.312 523.531 21.312H523.459V20.136H528.475V30.288C528.475 30.976 528.643 31.408 528.979 31.584C529.315 31.744 529.731 31.824 530.227 31.824H530.371V33H525.955L525.499 31.2H525.379C524.899 32.048 524.331 32.6 523.675 32.856C523.019 33.112 522.315 33.24 521.563 33.24Z" fill="black"/>
<path d="M25.4697 13C18.6295 13 13 18.6432 13 25.5C13 32.3568 18.6295 38 25.4697 38C32.3099 38 38 32.4175 38 25.5C38 18.5825 32.3705 13 25.4697 13ZM35.6392 24.4078H31.0993C30.8571 21.2524 29.8281 18.2791 28.0726 15.6699C32.1283 16.7015 35.155 20.1602 35.6392 24.4078ZM22.1404 26.6529H28.799C28.4964 29.7476 27.3462 32.6602 25.4697 35.1481C23.5932 32.6602 22.4431 29.7476 22.1404 26.6529ZM22.1404 24.4078C22.4431 21.3131 23.5932 18.4005 25.4697 15.9126C27.3462 18.4005 28.5569 21.3131 28.799 24.4078H22.1404ZM22.9274 15.6092C21.1719 18.2184 20.1429 21.1917 19.9007 24.3471H15.3608C15.7845 20.1602 18.8717 16.7015 22.9274 15.6092ZM15.3608 26.6529H19.9007C20.1429 29.8083 21.1719 32.7816 22.9274 35.3908C18.8717 34.3592 15.7845 30.9005 15.3608 26.6529ZM28.0726 35.4515C29.8281 32.8422 30.8571 29.8689 31.0993 26.7136H35.6392C35.155 30.9005 32.1283 34.3592 28.0726 35.4515Z" fill="#65CE54"/>
</svg>
