<svg width="690" height="50" viewBox="0 0 690 50" fill="none" xmlns="http://www.w3.org/2000/svg">
<rect width="50" height="50" rx="10" fill="#FFF8E3"/>
<path d="M91.08 33V30.792L94.8 26.784C95.728 25.792 96.456 24.92 96.984 24.168C97.512 23.416 97.88 22.696 98.088 22.008C98.296 21.304 98.4 20.56 98.4 19.776C98.4 17.92 97.696 16.992 96.288 16.992C95.376 16.992 94.752 17.344 94.416 18.048C94.096 18.752 93.936 19.712 93.936 20.928C93.136 20.928 92.488 20.776 91.992 20.472C91.496 20.168 91.248 19.632 91.248 18.864C91.248 17.984 91.672 17.224 92.52 16.584C93.368 15.944 94.624 15.624 96.288 15.624C97.984 15.624 99.288 15.984 100.2 16.704C101.112 17.424 101.568 18.392 101.568 19.608C101.568 20.344 101.392 21.072 101.04 21.792C100.688 22.512 100.12 23.32 99.336 24.216C98.552 25.112 97.504 26.208 96.192 27.504L93.168 30.624H98.736C99.312 30.624 99.76 30.472 100.08 30.168C100.4 29.848 100.624 29.432 100.752 28.92L100.896 28.296H102.168L102.048 33H91.08ZM108.038 33V31.824H108.71C109.254 31.824 109.718 31.728 110.102 31.536C110.486 31.328 110.678 30.848 110.678 30.096V28.44H103.766V27.168L110.798 15.864H113.726V26.952H116.414V28.44H113.726V30.096C113.726 30.848 113.918 31.328 114.302 31.536C114.686 31.728 115.15 31.824 115.694 31.824H116.006V33H108.038ZM105.446 26.952H110.678V22.656C110.678 21.968 110.686 21.192 110.702 20.328C110.734 19.464 110.782 18.664 110.846 17.928C110.766 18.104 110.638 18.352 110.462 18.672C110.286 18.992 110.094 19.336 109.886 19.704C109.678 20.056 109.478 20.392 109.286 20.712C109.11 21.032 108.966 21.28 108.854 21.456L105.446 26.952ZM116.812 35.904L122.165 14.76H123.725L118.421 35.928L116.812 35.904ZM127.903 33L134.023 18.216H127.711C126.879 18.216 126.415 18.624 126.319 19.44L126.199 20.64H124.927L125.047 15.864H136.207V16.848L129.871 33H127.903ZM149.559 33.24C148.279 33.24 147.247 33.08 146.463 32.76C145.679 32.44 145.111 32.024 144.759 31.512C144.423 31 144.255 30.456 144.255 29.88C144.255 29.176 144.479 28.664 144.927 28.344C145.391 28.024 145.943 27.864 146.583 27.864C146.615 29.096 146.911 30.08 147.471 30.816C148.031 31.536 148.831 31.896 149.871 31.896C150.847 31.896 151.615 31.648 152.175 31.152C152.735 30.64 153.015 29.968 153.015 29.136C153.015 28.288 152.703 27.616 152.079 27.12C151.455 26.624 150.463 26.096 149.103 25.536C147.487 24.88 146.335 24.144 145.647 23.328C144.975 22.512 144.639 21.488 144.639 20.256C144.639 19.312 144.879 18.496 145.359 17.808C145.855 17.104 146.527 16.568 147.375 16.2C148.239 15.816 149.215 15.624 150.303 15.624C151.935 15.624 153.151 15.896 153.951 16.44C154.767 16.984 155.175 17.624 155.175 18.36C155.175 18.904 154.951 19.352 154.503 19.704C154.071 20.04 153.439 20.208 152.607 20.208C152.607 19.744 152.519 19.264 152.343 18.768C152.183 18.256 151.911 17.832 151.527 17.496C151.159 17.16 150.655 16.992 150.015 16.992C149.263 16.992 148.639 17.208 148.143 17.64C147.663 18.056 147.423 18.64 147.423 19.392C147.423 19.92 147.535 20.384 147.759 20.784C147.983 21.184 148.375 21.568 148.935 21.936C149.495 22.304 150.287 22.696 151.311 23.112C152.863 23.752 154.007 24.456 154.743 25.224C155.479 25.976 155.847 26.952 155.847 28.152C155.847 29.176 155.583 30.072 155.055 30.84C154.543 31.592 153.815 32.184 152.871 32.616C151.943 33.032 150.839 33.24 149.559 33.24ZM162.863 33.24C161.743 33.24 160.879 32.96 160.271 32.4C159.663 31.84 159.359 30.864 159.359 29.472V21.672H157.535V20.544C157.967 20.544 158.375 20.464 158.759 20.304C159.143 20.128 159.463 19.904 159.719 19.632C160.215 19.104 160.583 18.28 160.823 17.16H162.479V20.136H165.575V21.672H162.479V29.352C162.479 30.824 163.031 31.56 164.135 31.56C164.439 31.56 164.727 31.544 164.999 31.512C165.271 31.464 165.535 31.408 165.791 31.344V32.712C165.551 32.84 165.167 32.96 164.639 33.072C164.111 33.184 163.519 33.24 162.863 33.24ZM166.889 33V31.824H166.961C167.505 31.824 167.953 31.728 168.305 31.536C168.673 31.328 168.857 30.848 168.857 30.096V22.944C168.857 22.24 168.681 21.792 168.329 21.6C167.993 21.408 167.561 21.312 167.033 21.312H166.961V20.136H171.377L171.833 22.2H171.953C172.273 21.48 172.657 20.912 173.105 20.496C173.569 20.08 174.305 19.872 175.313 19.872C177.105 19.872 178.001 20.496 178.001 21.744C178.001 22.4 177.769 22.912 177.305 23.28C176.841 23.648 176.161 23.832 175.265 23.832C175.265 23.176 175.177 22.688 175.001 22.368C174.825 22.048 174.513 21.888 174.065 21.888C173.633 21.888 173.281 22.048 173.009 22.368C172.737 22.672 172.521 23.064 172.361 23.544C172.217 24.008 172.113 24.48 172.049 24.96C172.001 25.44 171.977 25.856 171.977 26.208V30.216C171.977 30.92 172.145 31.368 172.481 31.56C172.833 31.736 173.257 31.824 173.753 31.824H174.497V33H166.889ZM185.511 33.24C183.655 33.24 182.199 32.688 181.143 31.584C180.087 30.464 179.559 28.776 179.559 26.52C179.559 24.28 180.063 22.608 181.071 21.504C182.095 20.4 183.599 19.848 185.583 19.848C187.423 19.848 188.871 20.4 189.927 21.504C190.999 22.608 191.535 24.28 191.535 26.52C191.535 28.776 191.023 30.464 189.999 31.584C188.991 32.688 187.495 33.24 185.511 33.24ZM185.559 31.824C186.583 31.824 187.303 31.376 187.719 30.48C188.135 29.584 188.343 28.264 188.343 26.52C188.343 24.776 188.135 23.472 187.719 22.608C187.303 21.728 186.575 21.288 185.535 21.288C184.495 21.288 183.767 21.728 183.351 22.608C182.951 23.472 182.751 24.776 182.751 26.52C182.751 28.264 182.959 29.584 183.375 30.48C183.807 31.376 184.535 31.824 185.559 31.824ZM193.279 33V31.824H193.375C193.919 31.824 194.375 31.728 194.743 31.536C195.111 31.344 195.295 30.88 195.295 30.144V22.896C195.295 22.208 195.127 21.776 194.791 21.6C194.455 21.408 194.023 21.312 193.495 21.312H193.399V20.136H198.007L198.319 21.936H198.439C198.919 21.04 199.463 20.472 200.071 20.232C200.695 19.976 201.383 19.848 202.135 19.848C203.383 19.848 204.359 20.224 205.063 20.976C205.767 21.712 206.119 22.888 206.119 24.504V30.12C206.119 30.856 206.263 31.328 206.551 31.536C206.839 31.728 207.255 31.824 207.799 31.824H207.895V33H202.999V24.96C202.999 23.92 202.831 23.12 202.495 22.56C202.175 21.984 201.615 21.696 200.815 21.696C200.207 21.696 199.727 21.872 199.375 22.224C199.023 22.576 198.775 23.04 198.631 23.616C198.487 24.192 198.415 24.816 198.415 25.488V30.24C198.415 30.928 198.583 31.368 198.919 31.56C199.255 31.736 199.687 31.824 200.215 31.824H200.311V33H193.279ZM214.163 38.76C212.371 38.76 211.027 38.464 210.131 37.872C209.235 37.296 208.787 36.456 208.787 35.352C208.787 34.472 209.075 33.8 209.651 33.336C210.227 32.872 210.987 32.584 211.931 32.472C211.547 32.312 211.187 32.064 210.851 31.728C210.515 31.392 210.347 30.944 210.347 30.384C210.347 29.888 210.515 29.448 210.851 29.064C211.203 28.68 211.675 28.32 212.267 27.984C211.579 27.712 211.011 27.256 210.563 26.616C210.131 25.976 209.915 25.2 209.915 24.288C209.915 22.896 210.307 21.808 211.091 21.024C211.891 20.24 213.107 19.848 214.739 19.848C215.315 19.848 215.851 19.928 216.347 20.088C216.843 20.232 217.251 20.408 217.571 20.616C217.923 20.232 218.291 19.92 218.675 19.68C219.059 19.424 219.499 19.296 219.995 19.296C220.539 19.296 220.939 19.432 221.195 19.704C221.467 19.96 221.603 20.264 221.603 20.616C221.603 20.968 221.491 21.28 221.267 21.552C221.043 21.808 220.643 21.936 220.067 21.936C220.067 21.664 219.987 21.44 219.827 21.264C219.667 21.088 219.459 21 219.203 21C219.043 21 218.883 21.024 218.723 21.072C218.563 21.12 218.427 21.184 218.315 21.264C218.619 21.632 218.875 22.072 219.083 22.584C219.291 23.08 219.395 23.64 219.395 24.264C219.395 25.464 219.019 26.464 218.267 27.264C217.515 28.048 216.339 28.44 214.739 28.44C214.563 28.44 214.331 28.432 214.043 28.416C213.771 28.4 213.555 28.376 213.395 28.344C213.139 28.472 212.915 28.648 212.723 28.872C212.531 29.096 212.435 29.368 212.435 29.688C212.435 30.232 212.859 30.504 213.707 30.504H216.539C218.075 30.504 219.187 30.832 219.875 31.488C220.563 32.144 220.907 33.024 220.907 34.128C220.907 35.568 220.355 36.696 219.251 37.512C218.147 38.344 216.451 38.76 214.163 38.76ZM214.667 27.12C215.355 27.12 215.827 26.88 216.083 26.4C216.355 25.904 216.491 25.184 216.491 24.24C216.491 23.28 216.355 22.536 216.083 22.008C215.827 21.464 215.347 21.192 214.643 21.192C213.971 21.192 213.499 21.472 213.227 22.032C212.955 22.576 212.819 23.32 212.819 24.264C212.819 25.176 212.955 25.88 213.227 26.376C213.515 26.872 213.995 27.12 214.667 27.12ZM214.211 37.416C215.731 37.416 216.803 37.184 217.427 36.72C218.051 36.272 218.363 35.64 218.363 34.824C218.363 34.232 218.179 33.824 217.811 33.6C217.459 33.392 216.931 33.288 216.227 33.288H213.611C213.243 33.288 212.875 33.336 212.507 33.432C212.155 33.528 211.859 33.72 211.619 34.008C211.395 34.296 211.283 34.72 211.283 35.28C211.283 35.952 211.515 36.472 211.979 36.84C212.443 37.224 213.187 37.416 214.211 37.416ZM237.287 33.24C235.527 33.24 234.055 32.872 232.871 32.136C231.703 31.4 230.823 30.376 230.231 29.064C229.655 27.736 229.367 26.184 229.367 24.408C229.367 22.68 229.671 21.16 230.279 19.848C230.887 18.52 231.791 17.488 232.991 16.752C234.191 16 235.671 15.624 237.431 15.624C239.191 15.624 240.503 15.888 241.367 16.416C242.231 16.944 242.663 17.592 242.663 18.36C242.663 18.936 242.423 19.408 241.943 19.776C241.479 20.128 240.831 20.304 239.999 20.304C239.999 19.792 239.911 19.288 239.735 18.792C239.575 18.296 239.295 17.888 238.895 17.568C238.511 17.232 237.983 17.064 237.311 17.064C235.663 17.064 234.511 17.704 233.855 18.984C233.199 20.248 232.871 22.056 232.871 24.408C232.871 26.664 233.247 28.4 233.999 29.616C234.751 30.832 236.007 31.44 237.767 31.44C238.935 31.44 239.855 31.216 240.527 30.768C241.215 30.304 241.767 29.8 242.183 29.256C242.311 29.352 242.415 29.488 242.495 29.664C242.575 29.84 242.615 30.04 242.615 30.264C242.615 30.68 242.439 31.12 242.087 31.584C241.735 32.048 241.167 32.44 240.383 32.76C239.615 33.08 238.583 33.24 237.287 33.24ZM249.922 33.24C248.658 33.24 247.69 32.864 247.018 32.112C246.346 31.344 246.01 30.144 246.01 28.512V22.992C246.01 22.288 245.85 21.832 245.53 21.624C245.226 21.416 244.794 21.312 244.234 21.312H244.186V20.136H249.13V28.032C249.13 29.072 249.274 29.896 249.562 30.504C249.85 31.096 250.402 31.392 251.218 31.392C252.098 31.392 252.73 31.056 253.114 30.384C253.514 29.696 253.714 28.784 253.714 27.648V22.92C253.714 22.44 253.626 22.088 253.45 21.864C253.29 21.64 253.066 21.496 252.778 21.432C252.506 21.352 252.21 21.312 251.89 21.312H251.818V20.136H256.834V30.288C256.834 30.976 257.002 31.408 257.338 31.584C257.674 31.744 258.09 31.824 258.586 31.824H258.73V33H254.314L253.858 31.2H253.738C253.258 32.048 252.69 32.6 252.034 32.856C251.378 33.112 250.674 33.24 249.922 33.24ZM264.665 33.24C263.129 33.24 261.993 32.992 261.257 32.496C260.537 32 260.177 31.344 260.177 30.528C260.177 30.032 260.289 29.664 260.513 29.424C260.737 29.168 261.001 29 261.305 28.92C261.609 28.824 261.881 28.776 262.121 28.776C262.121 29.704 262.337 30.464 262.769 31.056C263.217 31.632 263.865 31.92 264.713 31.92C265.561 31.92 266.185 31.744 266.585 31.392C266.985 31.04 267.185 30.6 267.185 30.072C267.185 29.72 267.097 29.416 266.921 29.16C266.745 28.888 266.441 28.632 266.009 28.392C265.593 28.152 265.001 27.888 264.233 27.6C262.969 27.12 262.009 26.592 261.353 26.016C260.713 25.424 260.393 24.592 260.393 23.52C260.393 22.304 260.841 21.392 261.737 20.784C262.633 20.176 263.817 19.872 265.289 19.872C266.665 19.872 267.665 20.104 268.289 20.568C268.913 21.016 269.225 21.528 269.225 22.104C269.225 22.6 269.049 22.984 268.697 23.256C268.361 23.528 267.817 23.664 267.065 23.664C267.065 22.88 266.889 22.264 266.537 21.816C266.185 21.368 265.657 21.144 264.953 21.144C264.329 21.144 263.825 21.296 263.441 21.6C263.073 21.888 262.889 22.288 262.889 22.8C262.889 23.168 262.985 23.48 263.177 23.736C263.369 23.992 263.689 24.24 264.137 24.48C264.601 24.72 265.241 24.984 266.057 25.272C267.193 25.704 268.081 26.216 268.721 26.808C269.361 27.384 269.681 28.176 269.681 29.184C269.681 30.496 269.233 31.504 268.337 32.208C267.441 32.896 266.217 33.24 264.665 33.24ZM276.488 33.24C275.368 33.24 274.504 32.96 273.896 32.4C273.288 31.84 272.984 30.864 272.984 29.472V21.672H271.16V20.544C271.592 20.544 272 20.464 272.384 20.304C272.768 20.128 273.088 19.904 273.344 19.632C273.84 19.104 274.208 18.28 274.448 17.16H276.104V20.136H279.2V21.672H276.104V29.352C276.104 30.824 276.656 31.56 277.76 31.56C278.064 31.56 278.352 31.544 278.624 31.512C278.896 31.464 279.16 31.408 279.416 31.344V32.712C279.176 32.84 278.792 32.96 278.264 33.072C277.736 33.184 277.144 33.24 276.488 33.24ZM287.066 33.24C285.21 33.24 283.754 32.688 282.698 31.584C281.642 30.464 281.114 28.776 281.114 26.52C281.114 24.28 281.618 22.608 282.626 21.504C283.65 20.4 285.154 19.848 287.138 19.848C288.978 19.848 290.426 20.4 291.482 21.504C292.554 22.608 293.09 24.28 293.09 26.52C293.09 28.776 292.578 30.464 291.554 31.584C290.546 32.688 289.05 33.24 287.066 33.24ZM287.114 31.824C288.138 31.824 288.858 31.376 289.274 30.48C289.69 29.584 289.898 28.264 289.898 26.52C289.898 24.776 289.69 23.472 289.274 22.608C288.858 21.728 288.13 21.288 287.09 21.288C286.05 21.288 285.322 21.728 284.906 22.608C284.506 23.472 284.306 24.776 284.306 26.52C284.306 28.264 284.514 29.584 284.93 30.48C285.362 31.376 286.09 31.824 287.114 31.824ZM294.833 33V31.824H294.977C295.521 31.824 295.969 31.728 296.321 31.536C296.673 31.344 296.849 30.88 296.849 30.144V22.848C296.849 22.16 296.681 21.728 296.345 21.552C296.025 21.36 295.601 21.264 295.073 21.264H295.001V20.136H299.561L299.873 21.936H299.993C300.473 21.04 301.009 20.472 301.601 20.232C302.209 19.976 302.889 19.848 303.641 19.848C304.473 19.848 305.201 20.008 305.825 20.328C306.449 20.648 306.913 21.184 307.217 21.936H307.409C307.889 21.04 308.457 20.472 309.113 20.232C309.769 19.976 310.473 19.848 311.225 19.848C312.441 19.848 313.401 20.224 314.105 20.976C314.809 21.712 315.161 22.888 315.161 24.504V30.12C315.161 30.856 315.305 31.328 315.593 31.536C315.897 31.728 316.321 31.824 316.865 31.824H316.937V33H312.041V24.96C312.041 23.92 311.881 23.12 311.561 22.56C311.241 21.984 310.681 21.696 309.881 21.696C309.321 21.696 308.873 21.856 308.537 22.176C308.201 22.496 307.953 22.92 307.793 23.448C307.649 23.976 307.577 24.552 307.577 25.176V30.12C307.577 30.856 307.721 31.328 308.009 31.536C308.313 31.728 308.737 31.824 309.281 31.824H309.353V33H304.457V24.96C304.457 23.92 304.297 23.12 303.977 22.56C303.657 21.984 303.105 21.696 302.321 21.696C301.729 21.696 301.257 21.872 300.905 22.224C300.569 22.576 300.329 23.04 300.185 23.616C300.041 24.192 299.969 24.816 299.969 25.488V30.24C299.969 30.928 300.137 31.368 300.473 31.56C300.825 31.736 301.265 31.824 301.793 31.824H301.865V33H294.833ZM324.731 33.24C322.795 33.24 321.315 32.664 320.291 31.512C319.267 30.36 318.755 28.736 318.755 26.64C318.755 24.4 319.251 22.712 320.243 21.576C321.235 20.424 322.643 19.848 324.467 19.848C326.131 19.848 327.443 20.336 328.403 21.312C329.363 22.288 329.843 23.72 329.843 25.608V26.784H321.923C321.971 28.448 322.275 29.664 322.835 30.432C323.411 31.184 324.227 31.56 325.283 31.56C326.115 31.56 326.819 31.376 327.395 31.008C327.971 30.64 328.403 30.208 328.691 29.712C329.075 29.904 329.267 30.248 329.267 30.744C329.267 31.16 329.099 31.56 328.763 31.944C328.443 32.312 327.947 32.624 327.275 32.88C326.619 33.12 325.771 33.24 324.731 33.24ZM321.971 25.344H326.651C326.651 24.112 326.483 23.136 326.147 22.416C325.827 21.68 325.275 21.312 324.491 21.312C323.739 21.312 323.147 21.656 322.715 22.344C322.283 23.032 322.035 24.032 321.971 25.344ZM331.514 33V31.824H331.586C332.13 31.824 332.578 31.728 332.93 31.536C333.298 31.328 333.482 30.848 333.482 30.096V22.944C333.482 22.24 333.306 21.792 332.954 21.6C332.618 21.408 332.186 21.312 331.658 21.312H331.586V20.136H336.002L336.458 22.2H336.578C336.898 21.48 337.282 20.912 337.73 20.496C338.194 20.08 338.93 19.872 339.938 19.872C341.73 19.872 342.626 20.496 342.626 21.744C342.626 22.4 342.394 22.912 341.93 23.28C341.466 23.648 340.786 23.832 339.89 23.832C339.89 23.176 339.802 22.688 339.626 22.368C339.45 22.048 339.138 21.888 338.69 21.888C338.258 21.888 337.906 22.048 337.634 22.368C337.362 22.672 337.146 23.064 336.986 23.544C336.842 24.008 336.738 24.48 336.674 24.96C336.626 25.44 336.602 25.856 336.602 26.208V30.216C336.602 30.92 336.77 31.368 337.106 31.56C337.458 31.736 337.882 31.824 338.378 31.824H339.122V33H331.514ZM355.411 33.24C354.131 33.24 353.099 33.08 352.315 32.76C351.531 32.44 350.963 32.024 350.611 31.512C350.275 31 350.107 30.456 350.107 29.88C350.107 29.176 350.331 28.664 350.779 28.344C351.243 28.024 351.795 27.864 352.435 27.864C352.467 29.096 352.763 30.08 353.323 30.816C353.883 31.536 354.683 31.896 355.723 31.896C356.699 31.896 357.467 31.648 358.027 31.152C358.587 30.64 358.867 29.968 358.867 29.136C358.867 28.288 358.555 27.616 357.931 27.12C357.307 26.624 356.315 26.096 354.955 25.536C353.339 24.88 352.187 24.144 351.499 23.328C350.827 22.512 350.491 21.488 350.491 20.256C350.491 19.312 350.731 18.496 351.211 17.808C351.707 17.104 352.379 16.568 353.227 16.2C354.091 15.816 355.067 15.624 356.155 15.624C357.787 15.624 359.003 15.896 359.803 16.44C360.619 16.984 361.027 17.624 361.027 18.36C361.027 18.904 360.803 19.352 360.355 19.704C359.923 20.04 359.291 20.208 358.459 20.208C358.459 19.744 358.371 19.264 358.195 18.768C358.035 18.256 357.763 17.832 357.379 17.496C357.011 17.16 356.507 16.992 355.867 16.992C355.115 16.992 354.491 17.208 353.995 17.64C353.515 18.056 353.275 18.64 353.275 19.392C353.275 19.92 353.387 20.384 353.611 20.784C353.835 21.184 354.227 21.568 354.787 21.936C355.347 22.304 356.139 22.696 357.163 23.112C358.715 23.752 359.859 24.456 360.595 25.224C361.331 25.976 361.699 26.952 361.699 28.152C361.699 29.176 361.435 30.072 360.907 30.84C360.395 31.592 359.667 32.184 358.723 32.616C357.795 33.032 356.691 33.24 355.411 33.24ZM369.242 33.24C367.978 33.24 367.01 32.864 366.338 32.112C365.666 31.344 365.33 30.144 365.33 28.512V22.992C365.33 22.288 365.17 21.832 364.85 21.624C364.546 21.416 364.114 21.312 363.554 21.312H363.506V20.136H368.45V28.032C368.45 29.072 368.594 29.896 368.882 30.504C369.17 31.096 369.722 31.392 370.538 31.392C371.418 31.392 372.05 31.056 372.434 30.384C372.834 29.696 373.034 28.784 373.034 27.648V22.92C373.034 22.44 372.946 22.088 372.77 21.864C372.61 21.64 372.386 21.496 372.098 21.432C371.826 21.352 371.53 21.312 371.21 21.312H371.138V20.136H376.154V30.288C376.154 30.976 376.322 31.408 376.658 31.584C376.994 31.744 377.41 31.824 377.906 31.824H378.05V33H373.634L373.178 31.2H373.058C372.578 32.048 372.01 32.6 371.354 32.856C370.698 33.112 369.994 33.24 369.242 33.24ZM378.993 38.76V37.584H379.233C379.505 37.584 379.785 37.544 380.073 37.464C380.361 37.4 380.593 37.256 380.769 37.032C380.961 36.808 381.057 36.456 381.057 35.976V22.968C381.057 22.248 380.881 21.792 380.529 21.6C380.193 21.408 379.785 21.312 379.305 21.312H379.089V20.136H383.601L383.961 22.128H384.057C384.409 21.456 384.873 20.92 385.449 20.52C386.025 20.104 386.785 19.896 387.729 19.896C389.313 19.896 390.521 20.432 391.353 21.504C392.201 22.576 392.625 24.272 392.625 26.592C392.625 28.912 392.209 30.608 391.377 31.68C390.545 32.736 389.345 33.264 387.777 33.264C386.865 33.264 386.121 33.088 385.545 32.736C384.969 32.368 384.505 31.88 384.153 31.272H384.009C384.041 31.528 384.065 31.84 384.081 32.208C384.113 32.576 384.137 32.928 384.153 33.264C384.169 33.6 384.177 33.88 384.177 34.104V36C384.177 36.464 384.265 36.808 384.441 37.032C384.633 37.256 384.865 37.4 385.137 37.464C385.409 37.544 385.689 37.584 385.977 37.584H386.337V38.76H378.993ZM386.937 31.584C387.833 31.584 388.473 31.168 388.857 30.336C389.257 29.488 389.457 28.24 389.457 26.592C389.457 24.96 389.257 23.72 388.857 22.872C388.473 22.024 387.833 21.6 386.937 21.6C385.865 21.6 385.137 22.024 384.753 22.872C384.369 23.704 384.177 24.944 384.177 26.592C384.177 28.24 384.369 29.488 384.753 30.336C385.137 31.168 385.865 31.584 386.937 31.584ZM394.18 38.76V37.584H394.42C394.692 37.584 394.972 37.544 395.26 37.464C395.548 37.4 395.78 37.256 395.956 37.032C396.148 36.808 396.244 36.456 396.244 35.976V22.968C396.244 22.248 396.068 21.792 395.716 21.6C395.38 21.408 394.972 21.312 394.492 21.312H394.276V20.136H398.788L399.148 22.128H399.244C399.596 21.456 400.06 20.92 400.636 20.52C401.212 20.104 401.972 19.896 402.916 19.896C404.5 19.896 405.708 20.432 406.54 21.504C407.388 22.576 407.812 24.272 407.812 26.592C407.812 28.912 407.396 30.608 406.564 31.68C405.732 32.736 404.532 33.264 402.964 33.264C402.052 33.264 401.308 33.088 400.732 32.736C400.156 32.368 399.692 31.88 399.34 31.272H399.196C399.228 31.528 399.252 31.84 399.268 32.208C399.3 32.576 399.324 32.928 399.34 33.264C399.356 33.6 399.364 33.88 399.364 34.104V36C399.364 36.464 399.452 36.808 399.628 37.032C399.82 37.256 400.052 37.4 400.324 37.464C400.596 37.544 400.876 37.584 401.164 37.584H401.524V38.76H394.18ZM402.124 31.584C403.02 31.584 403.66 31.168 404.044 30.336C404.444 29.488 404.644 28.24 404.644 26.592C404.644 24.96 404.444 23.72 404.044 22.872C403.66 22.024 403.02 21.6 402.124 21.6C401.052 21.6 400.324 22.024 399.94 22.872C399.556 23.704 399.364 24.944 399.364 26.592C399.364 28.24 399.556 29.488 399.94 30.336C400.324 31.168 401.052 31.584 402.124 31.584ZM416.16 33.24C414.304 33.24 412.848 32.688 411.792 31.584C410.736 30.464 410.208 28.776 410.208 26.52C410.208 24.28 410.712 22.608 411.72 21.504C412.744 20.4 414.248 19.848 416.232 19.848C418.072 19.848 419.52 20.4 420.576 21.504C421.648 22.608 422.184 24.28 422.184 26.52C422.184 28.776 421.672 30.464 420.648 31.584C419.64 32.688 418.144 33.24 416.16 33.24ZM416.208 31.824C417.232 31.824 417.952 31.376 418.368 30.48C418.784 29.584 418.992 28.264 418.992 26.52C418.992 24.776 418.784 23.472 418.368 22.608C417.952 21.728 417.224 21.288 416.184 21.288C415.144 21.288 414.416 21.728 414 22.608C413.6 23.472 413.4 24.776 413.4 26.52C413.4 28.264 413.608 29.584 414.024 30.48C414.456 31.376 415.184 31.824 416.208 31.824ZM423.975 33V31.824H424.047C424.591 31.824 425.039 31.728 425.391 31.536C425.759 31.328 425.943 30.848 425.943 30.096V22.944C425.943 22.24 425.767 21.792 425.415 21.6C425.079 21.408 424.647 21.312 424.119 21.312H424.047V20.136H428.463L428.919 22.2H429.039C429.359 21.48 429.743 20.912 430.191 20.496C430.655 20.08 431.391 19.872 432.399 19.872C434.191 19.872 435.087 20.496 435.087 21.744C435.087 22.4 434.855 22.912 434.391 23.28C433.927 23.648 433.247 23.832 432.351 23.832C432.351 23.176 432.263 22.688 432.087 22.368C431.911 22.048 431.599 21.888 431.151 21.888C430.719 21.888 430.367 22.048 430.095 22.368C429.823 22.672 429.607 23.064 429.447 23.544C429.303 24.008 429.199 24.48 429.135 24.96C429.087 25.44 429.063 25.856 429.063 26.208V30.216C429.063 30.92 429.231 31.368 429.567 31.56C429.919 31.736 430.343 31.824 430.839 31.824H431.583V33H423.975ZM441.253 33.24C440.133 33.24 439.269 32.96 438.661 32.4C438.053 31.84 437.749 30.864 437.749 29.472V21.672H435.925V20.544C436.357 20.544 436.765 20.464 437.149 20.304C437.533 20.128 437.853 19.904 438.109 19.632C438.605 19.104 438.973 18.28 439.213 17.16H440.869V20.136H443.965V21.672H440.869V29.352C440.869 30.824 441.421 31.56 442.525 31.56C442.829 31.56 443.117 31.544 443.389 31.512C443.661 31.464 443.925 31.408 444.181 31.344V32.712C443.941 32.84 443.557 32.96 443.029 33.072C442.501 33.184 441.909 33.24 441.253 33.24Z" fill="black"/>
<path d="M24.5 12C17.6125 12 12 17.6125 12 24.5V27V32V33.25C12 35.3125 13.6875 37 15.75 37H17C19.0625 37 20.75 35.3125 20.75 33.25V29.5C20.75 27.4375 19.0625 25.75 17 25.75H14.5V24.5C14.5 18.9875 18.9875 14.5 24.5 14.5C30.0125 14.5 34.5 18.9875 34.5 24.5V25.75H32C29.9375 25.75 28.25 27.4375 28.25 29.5V33.25C28.25 35.3125 29.9375 37 32 37H33.25C35.3125 37 37 35.3125 37 33.25V32V27V24.5C37 17.6125 31.3875 12 24.5 12ZM17 28.25C17.6875 28.25 18.25 28.8125 18.25 29.5V33.25C18.25 33.9375 17.6875 34.5 17 34.5H15.75C15.0625 34.5 14.5 33.9375 14.5 33.25V32V28.25H17ZM34.5 33.25C34.5 33.9375 33.9375 34.5 33.25 34.5H32C31.3125 34.5 30.75 33.9375 30.75 33.25V29.5C30.75 28.8125 31.3125 28.25 32 28.25H34.5V32V33.25Z" fill="#FFC01E"/>
</svg>
